<svg width="254" height="40" viewBox="0 0 254 40" fill="none" xmlns="http://www.w3.org/2000/svg">
<g clip-path="url(#clip0_5756_174237)">
<path fill-rule="evenodd" clip-rule="evenodd" d="M54.5092 2.62339L49.5479 22.9557L44.5725 2.62339H30.2018V10.1319C28.4548 3.56222 22.0488 1.91395 16.3249 1.82023C9.34557 1.72869 1.61177 4.77513 1.3435 14.0714H10.9974C10.9974 11.2647 13.5481 9.65781 15.9571 9.69813C18.914 9.67361 20.2748 10.9448 20.3435 12.9249C20.2418 14.644 19.2347 15.8395 15.982 15.8395H12.7335V22.5879H15.6807C17.3552 22.5879 19.6858 23.5044 19.7777 25.9073C19.8892 28.7695 17.9128 30.0282 15.4811 30.0522C11.1412 29.8909 10.0206 26.5312 10.0206 23.6406H0C0.043269 25.588 -0.0200116 38.2739 15.6829 38.1807C23.2057 38.2505 28.6814 35.064 30.2261 30.6701V37.4037H39.8903V15.4679L45.2324 37.4037H53.8689L59.2304 15.4913V37.4234H69.0909V2.62339H54.5092ZM30.2334 22.9078C29.0018 20.3436 27.2694 19.2222 26.2943 18.8675C28.3409 17.9505 29.4118 16.7071 30.2334 14.23V22.9078Z" fill="#FF0000"/>
<rect x="92.8409" y="-2.5" width="1.81818" height="45" fill="#B4B4B8"/>
<path d="M117.659 33V6.4125H134.497V12H123.584V17.0625H133.484V22.275H123.584V27.375H134.534V33H117.659ZM143.386 23.7L136.861 14.3625H143.574L146.911 19.4625L150.174 14.3625H156.549L150.099 23.475C151.149 24.975 152.249 26.5625 153.399 28.2375C154.574 29.9125 155.699 31.5 156.774 33H150.099L146.649 27.75C146.399 28.125 146.124 28.5375 145.824 28.9875C145.524 29.4375 145.224 29.9 144.924 30.375C144.624 30.825 144.324 31.2875 144.024 31.7625C143.749 32.2125 143.486 32.625 143.236 33H136.974L143.386 23.7ZM159.503 40.125V14.3625H165.015V16.275C165.415 15.675 166.09 15.1375 167.04 14.6625C167.99 14.1625 169.14 13.9125 170.49 13.9125C171.84 13.9125 173.053 14.1625 174.128 14.6625C175.203 15.1375 176.103 15.8125 176.828 16.6875C177.578 17.5375 178.153 18.5625 178.553 19.7625C178.953 20.9375 179.153 22.225 179.153 23.625C179.153 25.05 178.928 26.3625 178.478 27.5625C178.053 28.7625 177.44 29.8 176.64 30.675C175.865 31.525 174.928 32.2 173.828 32.7C172.753 33.175 171.565 33.4125 170.265 33.4125C169.065 33.4125 168.028 33.2375 167.153 32.8875C166.278 32.5125 165.628 32.0625 165.203 31.5375V40.125H159.503ZM173.565 23.6625C173.565 22.8875 173.453 22.2125 173.228 21.6375C173.003 21.0625 172.69 20.5875 172.29 20.2125C171.89 19.8125 171.428 19.525 170.903 19.35C170.403 19.15 169.878 19.05 169.328 19.05C168.778 19.05 168.24 19.15 167.715 19.35C167.215 19.525 166.765 19.8125 166.365 20.2125C165.99 20.5875 165.69 21.0625 165.465 21.6375C165.24 22.2125 165.128 22.8875 165.128 23.6625C165.128 24.4375 165.24 25.1125 165.465 25.6875C165.69 26.2625 165.99 26.75 166.365 27.15C166.765 27.525 167.215 27.8125 167.715 28.0125C168.24 28.2125 168.778 28.3125 169.328 28.3125C169.878 28.3125 170.403 28.225 170.903 28.05C171.428 27.85 171.89 27.5625 172.29 27.1875C172.69 26.7875 173.003 26.3 173.228 25.725C173.453 25.125 173.565 24.4375 173.565 23.6625ZM194.79 19.9875C194.465 19.9125 194.153 19.8625 193.853 19.8375C193.553 19.8125 193.265 19.8 192.99 19.8C192.415 19.8 191.865 19.8875 191.34 20.0625C190.815 20.2375 190.353 20.525 189.953 20.925C189.553 21.325 189.228 21.85 188.978 22.5C188.753 23.15 188.64 23.9375 188.64 24.8625V33H182.94V14.3625H188.453V16.875C188.703 16.35 189.015 15.9125 189.39 15.5625C189.79 15.2125 190.215 14.9375 190.665 14.7375C191.115 14.5375 191.565 14.4 192.015 14.325C192.49 14.225 192.915 14.175 193.29 14.175C193.865 14.175 194.365 14.2375 194.79 14.3625V19.9875ZM209.884 21.45C209.859 21.1 209.771 20.7375 209.621 20.3625C209.496 19.9875 209.284 19.65 208.984 19.35C208.709 19.05 208.346 18.8 207.896 18.6C207.446 18.4 206.909 18.3 206.284 18.3C205.634 18.3 205.071 18.4 204.596 18.6C204.146 18.8 203.759 19.05 203.434 19.35C203.109 19.65 202.859 19.9875 202.684 20.3625C202.534 20.7375 202.446 21.1 202.421 21.45H209.884ZM215.021 28.05C214.746 28.8 214.359 29.5125 213.859 30.1875C213.384 30.8375 212.784 31.425 212.059 31.95C211.359 32.45 210.534 32.8375 209.584 33.1125C208.659 33.4125 207.621 33.5625 206.471 33.5625C205.196 33.5625 203.971 33.3375 202.796 32.8875C201.621 32.4375 200.584 31.7875 199.684 30.9375C198.784 30.0875 198.071 29.05 197.546 27.825C197.021 26.6 196.759 25.2 196.759 23.625C196.759 22.125 197.009 20.775 197.509 19.575C198.034 18.35 198.734 17.3125 199.609 16.4625C200.509 15.6125 201.534 14.9625 202.684 14.5125C203.859 14.0375 205.096 13.8 206.396 13.8C207.721 13.8 208.934 14.025 210.034 14.475C211.159 14.9 212.109 15.525 212.884 16.35C213.684 17.15 214.296 18.15 214.721 19.35C215.171 20.525 215.396 21.8625 215.396 23.3625C215.396 23.7625 215.384 24.15 215.359 24.525C215.334 24.875 215.309 25.075 215.284 25.125H202.309C202.359 26.175 202.771 27.0375 203.546 27.7125C204.321 28.3875 205.284 28.725 206.434 28.725C207.409 28.725 208.196 28.5375 208.796 28.1625C209.396 27.7625 209.846 27.225 210.146 26.55L215.021 28.05ZM222.908 26.85C222.958 27.5 223.208 28.0875 223.658 28.6125C224.133 29.1125 224.858 29.3625 225.833 29.3625C226.558 29.3625 227.095 29.2 227.445 28.875C227.82 28.55 228.008 28.175 228.008 27.75C228.008 27.4 227.87 27.1 227.595 26.85C227.345 26.575 226.87 26.3625 226.17 26.2125L224.033 25.725C223.033 25.5 222.183 25.2 221.483 24.825C220.783 24.45 220.208 24.0125 219.758 23.5125C219.308 23.0125 218.983 22.4625 218.783 21.8625C218.583 21.2625 218.483 20.6375 218.483 19.9875C218.483 19.1375 218.658 18.3375 219.008 17.5875C219.358 16.8375 219.845 16.1875 220.47 15.6375C221.12 15.0625 221.883 14.6125 222.758 14.2875C223.633 13.9625 224.595 13.8 225.645 13.8C226.995 13.8 228.133 13.9875 229.058 14.3625C229.983 14.7375 230.733 15.2125 231.308 15.7875C231.908 16.3375 232.345 16.9375 232.62 17.5875C232.895 18.2125 233.058 18.8 233.108 19.35L228.383 20.2125C228.308 19.5875 228.058 19.05 227.633 18.6C227.233 18.15 226.595 17.925 225.72 17.925C225.17 17.925 224.695 18.075 224.295 18.375C223.895 18.65 223.695 19.0375 223.695 19.5375C223.695 19.9375 223.833 20.25 224.108 20.475C224.383 20.7 224.733 20.85 225.158 20.925L227.633 21.4125C229.583 21.8125 231.02 22.55 231.945 23.625C232.895 24.675 233.37 25.8875 233.37 27.2625C233.37 28.0625 233.22 28.8375 232.92 29.5875C232.62 30.3375 232.158 31.0125 231.533 31.6125C230.908 32.1875 230.133 32.65 229.208 33C228.283 33.375 227.195 33.5625 225.945 33.5625C224.47 33.5625 223.233 33.3625 222.233 32.9625C221.258 32.5375 220.47 32.025 219.87 31.425C219.27 30.825 218.82 30.1875 218.52 29.5125C218.245 28.8375 218.095 28.2375 218.07 27.7125L222.908 26.85ZM240.925 26.85C240.975 27.5 241.225 28.0875 241.675 28.6125C242.15 29.1125 242.875 29.3625 243.85 29.3625C244.575 29.3625 245.113 29.2 245.463 28.875C245.838 28.55 246.025 28.175 246.025 27.75C246.025 27.4 245.888 27.1 245.613 26.85C245.363 26.575 244.888 26.3625 244.188 26.2125L242.05 25.725C241.05 25.5 240.2 25.2 239.5 24.825C238.8 24.45 238.225 24.0125 237.775 23.5125C237.325 23.0125 237 22.4625 236.8 21.8625C236.6 21.2625 236.5 20.6375 236.5 19.9875C236.5 19.1375 236.675 18.3375 237.025 17.5875C237.375 16.8375 237.863 16.1875 238.488 15.6375C239.138 15.0625 239.9 14.6125 240.775 14.2875C241.65 13.9625 242.613 13.8 243.663 13.8C245.013 13.8 246.15 13.9875 247.075 14.3625C248 14.7375 248.75 15.2125 249.325 15.7875C249.925 16.3375 250.363 16.9375 250.638 17.5875C250.913 18.2125 251.075 18.8 251.125 19.35L246.4 20.2125C246.325 19.5875 246.075 19.05 245.65 18.6C245.25 18.15 244.613 17.925 243.738 17.925C243.188 17.925 242.713 18.075 242.313 18.375C241.913 18.65 241.713 19.0375 241.713 19.5375C241.713 19.9375 241.85 20.25 242.125 20.475C242.4 20.7 242.75 20.85 243.175 20.925L245.65 21.4125C247.6 21.8125 249.038 22.55 249.963 23.625C250.913 24.675 251.388 25.8875 251.388 27.2625C251.388 28.0625 251.238 28.8375 250.938 29.5875C250.638 30.3375 250.175 31.0125 249.55 31.6125C248.925 32.1875 248.15 32.65 247.225 33C246.3 33.375 245.213 33.5625 243.963 33.5625C242.488 33.5625 241.25 33.3625 240.25 32.9625C239.275 32.5375 238.488 32.025 237.888 31.425C237.288 30.825 236.838 30.1875 236.538 29.5125C236.263 28.8375 236.113 28.2375 236.088 27.7125L240.925 26.85Z" fill="#323234"/>
</g>
<defs>
<clipPath id="clip0_5756_174237">
<rect width="253.409" height="40" fill="white"/>
</clipPath>
</defs>
</svg>
