<svg width="135" height="34" viewBox="0 0 135 34" fill="none" xmlns="http://www.w3.org/2000/svg">
<path d="M0.659119 27V0.412498H17.4966V6H6.58412V11.0625H16.4841V16.275H6.58412V21.375H17.5341V27H0.659119ZM26.3862 17.7L19.8612 8.3625H26.5737L29.9112 13.4625L33.1737 8.3625H39.5487L33.0987 17.475C34.1487 18.975 35.2487 20.5625 36.3987 22.2375C37.5737 23.9125 38.6987 25.5 39.7737 27H33.0987L29.6487 21.75C29.3987 22.125 29.1237 22.5375 28.8237 22.9875C28.5237 23.4375 28.2237 23.9 27.9237 24.375C27.6237 24.825 27.3237 25.2875 27.0237 25.7625C26.7487 26.2125 26.4862 26.625 26.2362 27H19.9737L26.3862 17.7ZM42.503 34.125V8.3625H48.0155V10.275C48.4155 9.675 49.0905 9.1375 50.0405 8.6625C50.9905 8.1625 52.1405 7.9125 53.4905 7.9125C54.8405 7.9125 56.053 8.1625 57.128 8.6625C58.203 9.1375 59.103 9.8125 59.828 10.6875C60.578 11.5375 61.153 12.5625 61.553 13.7625C61.953 14.9375 62.153 16.225 62.153 17.625C62.153 19.05 61.928 20.3625 61.478 21.5625C61.053 22.7625 60.4405 23.8 59.6405 24.675C58.8655 25.525 57.928 26.2 56.828 26.7C55.753 27.175 54.5655 27.4125 53.2655 27.4125C52.0655 27.4125 51.028 27.2375 50.153 26.8875C49.278 26.5125 48.628 26.0625 48.203 25.5375V34.125H42.503ZM56.5655 17.6625C56.5655 16.8875 56.453 16.2125 56.228 15.6375C56.003 15.0625 55.6905 14.5875 55.2905 14.2125C54.8905 13.8125 54.428 13.525 53.903 13.35C53.403 13.15 52.878 13.05 52.328 13.05C51.778 13.05 51.2405 13.15 50.7155 13.35C50.2155 13.525 49.7655 13.8125 49.3655 14.2125C48.9905 14.5875 48.6905 15.0625 48.4655 15.6375C48.2405 16.2125 48.128 16.8875 48.128 17.6625C48.128 18.4375 48.2405 19.1125 48.4655 19.6875C48.6905 20.2625 48.9905 20.75 49.3655 21.15C49.7655 21.525 50.2155 21.8125 50.7155 22.0125C51.2405 22.2125 51.778 22.3125 52.328 22.3125C52.878 22.3125 53.403 22.225 53.903 22.05C54.428 21.85 54.8905 21.5625 55.2905 21.1875C55.6905 20.7875 56.003 20.3 56.228 19.725C56.453 19.125 56.5655 18.4375 56.5655 17.6625ZM77.7905 13.9875C77.4655 13.9125 77.153 13.8625 76.853 13.8375C76.553 13.8125 76.2655 13.8 75.9905 13.8C75.4155 13.8 74.8655 13.8875 74.3405 14.0625C73.8155 14.2375 73.353 14.525 72.953 14.925C72.553 15.325 72.228 15.85 71.978 16.5C71.753 17.15 71.6405 17.9375 71.6405 18.8625V27H65.9405V8.3625H71.453V10.875C71.703 10.35 72.0155 9.9125 72.3905 9.5625C72.7905 9.2125 73.2155 8.9375 73.6655 8.7375C74.1155 8.5375 74.5655 8.4 75.0155 8.325C75.4905 8.225 75.9155 8.175 76.2905 8.175C76.8655 8.175 77.3655 8.2375 77.7905 8.3625V13.9875ZM92.8836 15.45C92.8586 15.1 92.7711 14.7375 92.6211 14.3625C92.4961 13.9875 92.2836 13.65 91.9836 13.35C91.7086 13.05 91.3461 12.8 90.8961 12.6C90.4461 12.4 89.9086 12.3 89.2836 12.3C88.6336 12.3 88.0711 12.4 87.5961 12.6C87.1461 12.8 86.7586 13.05 86.4336 13.35C86.1086 13.65 85.8586 13.9875 85.6836 14.3625C85.5336 14.7375 85.4461 15.1 85.4211 15.45H92.8836ZM98.0211 22.05C97.7461 22.8 97.3586 23.5125 96.8586 24.1875C96.3836 24.8375 95.7836 25.425 95.0586 25.95C94.3586 26.45 93.5336 26.8375 92.5836 27.1125C91.6586 27.4125 90.6211 27.5625 89.4711 27.5625C88.1961 27.5625 86.9711 27.3375 85.7961 26.8875C84.6211 26.4375 83.5836 25.7875 82.6836 24.9375C81.7836 24.0875 81.0711 23.05 80.5461 21.825C80.0211 20.6 79.7586 19.2 79.7586 17.625C79.7586 16.125 80.0086 14.775 80.5086 13.575C81.0336 12.35 81.7336 11.3125 82.6086 10.4625C83.5086 9.6125 84.5336 8.9625 85.6836 8.5125C86.8586 8.0375 88.0961 7.8 89.3961 7.8C90.7211 7.8 91.9336 8.025 93.0336 8.475C94.1586 8.9 95.1086 9.525 95.8836 10.35C96.6836 11.15 97.2961 12.15 97.7211 13.35C98.1711 14.525 98.3961 15.8625 98.3961 17.3625C98.3961 17.7625 98.3836 18.15 98.3586 18.525C98.3336 18.875 98.3086 19.075 98.2836 19.125H85.3086C85.3586 20.175 85.7711 21.0375 86.5461 21.7125C87.3211 22.3875 88.2836 22.725 89.4336 22.725C90.4086 22.725 91.1961 22.5375 91.7961 22.1625C92.3961 21.7625 92.8461 21.225 93.1461 20.55L98.0211 22.05ZM105.908 20.85C105.958 21.5 106.208 22.0875 106.658 22.6125C107.133 23.1125 107.858 23.3625 108.833 23.3625C109.558 23.3625 110.095 23.2 110.445 22.875C110.82 22.55 111.008 22.175 111.008 21.75C111.008 21.4 110.87 21.1 110.595 20.85C110.345 20.575 109.87 20.3625 109.17 20.2125L107.033 19.725C106.033 19.5 105.183 19.2 104.483 18.825C103.783 18.45 103.208 18.0125 102.758 17.5125C102.308 17.0125 101.983 16.4625 101.783 15.8625C101.583 15.2625 101.483 14.6375 101.483 13.9875C101.483 13.1375 101.658 12.3375 102.008 11.5875C102.358 10.8375 102.845 10.1875 103.47 9.6375C104.12 9.0625 104.883 8.6125 105.758 8.2875C106.633 7.9625 107.595 7.8 108.645 7.8C109.995 7.8 111.133 7.9875 112.058 8.3625C112.983 8.7375 113.733 9.2125 114.308 9.7875C114.908 10.3375 115.345 10.9375 115.62 11.5875C115.895 12.2125 116.058 12.8 116.108 13.35L111.383 14.2125C111.308 13.5875 111.058 13.05 110.633 12.6C110.233 12.15 109.595 11.925 108.72 11.925C108.17 11.925 107.695 12.075 107.295 12.375C106.895 12.65 106.695 13.0375 106.695 13.5375C106.695 13.9375 106.833 14.25 107.108 14.475C107.383 14.7 107.733 14.85 108.158 14.925L110.633 15.4125C112.583 15.8125 114.02 16.55 114.945 17.625C115.895 18.675 116.37 19.8875 116.37 21.2625C116.37 22.0625 116.22 22.8375 115.92 23.5875C115.62 24.3375 115.158 25.0125 114.533 25.6125C113.908 26.1875 113.133 26.65 112.208 27C111.283 27.375 110.195 27.5625 108.945 27.5625C107.47 27.5625 106.233 27.3625 105.233 26.9625C104.258 26.5375 103.47 26.025 102.87 25.425C102.27 24.825 101.82 24.1875 101.52 23.5125C101.245 22.8375 101.095 22.2375 101.07 21.7125L105.908 20.85ZM123.925 20.85C123.975 21.5 124.225 22.0875 124.675 22.6125C125.15 23.1125 125.875 23.3625 126.85 23.3625C127.575 23.3625 128.113 23.2 128.463 22.875C128.838 22.55 129.025 22.175 129.025 21.75C129.025 21.4 128.888 21.1 128.613 20.85C128.363 20.575 127.888 20.3625 127.188 20.2125L125.05 19.725C124.05 19.5 123.2 19.2 122.5 18.825C121.8 18.45 121.225 18.0125 120.775 17.5125C120.325 17.0125 120 16.4625 119.8 15.8625C119.6 15.2625 119.5 14.6375 119.5 13.9875C119.5 13.1375 119.675 12.3375 120.025 11.5875C120.375 10.8375 120.863 10.1875 121.488 9.6375C122.138 9.0625 122.9 8.6125 123.775 8.2875C124.65 7.9625 125.613 7.8 126.663 7.8C128.013 7.8 129.15 7.9875 130.075 8.3625C131 8.7375 131.75 9.2125 132.325 9.7875C132.925 10.3375 133.363 10.9375 133.638 11.5875C133.913 12.2125 134.075 12.8 134.125 13.35L129.4 14.2125C129.325 13.5875 129.075 13.05 128.65 12.6C128.25 12.15 127.613 11.925 126.738 11.925C126.188 11.925 125.713 12.075 125.313 12.375C124.913 12.65 124.713 13.0375 124.713 13.5375C124.713 13.9375 124.85 14.25 125.125 14.475C125.4 14.7 125.75 14.85 126.175 14.925L128.65 15.4125C130.6 15.8125 132.038 16.55 132.963 17.625C133.913 18.675 134.388 19.8875 134.388 21.2625C134.388 22.0625 134.238 22.8375 133.938 23.5875C133.638 24.3375 133.175 25.0125 132.55 25.6125C131.925 26.1875 131.15 26.65 130.225 27C129.3 27.375 128.213 27.5625 126.963 27.5625C125.488 27.5625 124.25 27.3625 123.25 26.9625C122.275 26.5375 121.488 26.025 120.888 25.425C120.288 24.825 119.838 24.1875 119.538 23.5125C119.263 22.8375 119.113 22.2375 119.088 21.7125L123.925 20.85Z" fill="#323234"/>
</svg>
