<svg width="6" height="6" viewBox="0 0 6 6" fill="none" xmlns="http://www.w3.org/2000/svg">
<path d="M0.00800006 2.954C0.00800006 2.55267 0.0826667 2.17467 0.232 1.82C0.390667 1.46533 0.600667 1.15733 0.862 0.896C1.12333 0.634666 1.42667 0.429333 1.772 0.28C2.12667 0.121333 2.50467 0.0419999 2.906 0.0419999C3.30733 0.0419999 3.68067 0.121333 4.026 0.28C4.38067 0.429333 4.68867 0.634666 4.95 0.896C5.21133 1.15733 5.41667 1.46533 5.566 1.82C5.72467 2.17467 5.804 2.55267 5.804 2.954C5.804 3.346 5.72467 3.71933 5.566 4.074C5.41667 4.42867 5.21133 4.73667 4.95 4.998C4.68867 5.25933 4.38067 5.46933 4.026 5.628C3.68067 5.77733 3.30733 5.852 2.906 5.852C2.50467 5.852 2.12667 5.77733 1.772 5.628C1.42667 5.46933 1.12333 5.25933 0.862 4.998C0.600667 4.73667 0.390667 4.42867 0.232 4.074C0.0826667 3.71933 0.00800006 3.346 0.00800006 2.954Z" fill="#323234"/>
</svg>
