<svg width="34" height="38" viewBox="0 0 34 38" fill="none" xmlns="http://www.w3.org/2000/svg">
<path d="M1 1H31C32.1046 1 33 1.89543 33 3V35C33 36.1046 32.1046 37 31 37H1V1Z" fill="white"/>
<path d="M17.2839 22.7122C17.1244 22.8668 16.8755 22.8668 16.7159 22.7122L10.412 16.6038C10.248 16.445 10.3572 16.1615 10.5824 16.1615H23.4175C23.6426 16.1615 23.7518 16.445 23.5879 16.6038L17.2839 22.7122Z" fill="#0049BD"/>
<path d="M1 1H31C32.1046 1 33 1.89543 33 3V35C33 36.1046 32.1046 37 31 37H1V1Z" stroke="#1E64D0"/>
</svg>
