<svg width="26" height="26" viewBox="0 0 26 26" fill="none" xmlns="http://www.w3.org/2000/svg">
<path d="M17.7863 8.71484V9.71484V8.71484ZM1.5 8.71484L1.5 9.71484L1.5 8.71484ZM8.21484 8.71484V7.71484V8.71484ZM9.21484 2H16.7863V0H9.21484V2ZM9.71484 8.21484V1.5H7.71484V8.21484H9.71484ZM1.5 9.71484H8.21484L8.21484 7.71484L1.5 7.71484L1.5 9.71484ZM2 16.7863V9.21484H0V16.7863H2ZM8.21484 16.2863H1.5V18.2863H8.21484V16.2863ZM9.71484 24.5V17.7863H7.71484V24.5H9.71484ZM16.7863 24H9.21484V26H16.7863V24ZM16.2863 17.7863V24.5H18.2863V17.7863H16.2863ZM24.5 16.2863H17.7863V18.2863H24.5V16.2863ZM24 9.21484V16.7863H26V9.21484H24ZM17.7863 9.71484H24.5V7.71484L17.7863 7.71484V9.71484ZM16.2863 1.5V8.21484H18.2863V1.5H16.2863ZM17.7863 7.71484C18.0624 7.71484 18.2863 7.9387 18.2863 8.21484H16.2863C16.2863 9.04327 16.9578 9.71484 17.7863 9.71484V7.71484ZM26 9.21484C26 8.38642 25.3284 7.71484 24.5 7.71484V9.71484C24.2239 9.71484 24 9.49098 24 9.21484H26ZM24.5 18.2863C25.3284 18.2863 26 17.6147 26 16.7863H24C24 16.5101 24.2239 16.2863 24.5 16.2863V18.2863ZM18.2863 17.7863C18.2863 18.0624 18.0624 18.2863 17.7863 18.2863V16.2863C16.9578 16.2863 16.2863 16.9578 16.2863 17.7863H18.2863ZM16.7863 26C17.6147 26 18.2863 25.3284 18.2863 24.5H16.2863C16.2863 24.2239 16.5101 24 16.7863 24V26ZM7.71484 24.5C7.71484 25.3284 8.38641 26 9.21484 26V24C9.49099 24 9.71484 24.2239 9.71484 24.5H7.71484ZM8.21484 18.2863C7.9387 18.2863 7.71484 18.0624 7.71484 17.7863H9.71484C9.71484 16.9578 9.04327 16.2863 8.21484 16.2863V18.2863ZM0 16.7863C0 17.6147 0.671574 18.2863 1.5 18.2863V16.2863C1.77614 16.2863 2 16.5101 2 16.7863H0ZM1.5 7.71484C0.671576 7.71484 0 8.38641 0 9.21484H2C2 9.49099 1.77614 9.71484 1.5 9.71484L1.5 7.71484ZM7.71484 8.21484C7.71484 7.9387 7.9387 7.71484 8.21484 7.71484L8.21484 9.71484C9.04327 9.71484 9.71484 9.04327 9.71484 8.21484H7.71484ZM16.7863 2C16.5101 2 16.2863 1.77614 16.2863 1.5H18.2863C18.2863 0.671575 17.6147 0 16.7863 0V2ZM9.21484 0C8.38642 0 7.71484 0.671574 7.71484 1.5H9.71484C9.71484 1.77614 9.49099 2 9.21484 2V0Z" fill="#0049BD"/>
</svg>
