<svg width="18" height="18" viewBox="0 0 18 18" fill="none" xmlns="http://www.w3.org/2000/svg">
<path d="M12.3498 5.19615L17.1935 6.32175C17.56 6.4069 17.7047 6.85098 17.4587 7.13565L14.21 10.8958C14.1232 10.9964 14.0799 11.1274 14.0898 11.2599L14.5215 17.0445C14.5516 17.4474 14.116 17.7178 13.7683 17.512L9.27002 14.8498C9.11297 14.7568 8.91775 14.7568 8.7607 14.8498L4.26186 17.5123C3.91422 17.7181 3.47874 17.448 3.50857 17.0451L3.94089 11.2069C3.9508 11.0731 3.9065 10.9409 3.81795 10.84L0.553761 7.12312C0.303789 6.83848 0.448827 6.39007 0.818143 6.30573L5.67965 5.19562C5.81142 5.16553 5.92539 5.08337 5.9956 4.96788L8.5881 0.702893C8.78285 0.382509 9.24787 0.382509 9.44262 0.702893L12.0357 4.96884C12.1056 5.08377 12.2188 5.16571 12.3498 5.19615Z" fill="#0049BD"/>
</svg>
