<svg width="20" height="20" viewBox="0 0 20 20" fill="none" xmlns="http://www.w3.org/2000/svg">
<g clip-path="url(#clip0_27822_101610)">
<path fill-rule="evenodd" clip-rule="evenodd" d="M10.0007 19.1673C15.0633 19.1673 19.1673 15.0633 19.1673 10.0007C19.1673 4.93804 15.0633 0.833984 10.0007 0.833984C4.93804 0.833984 0.833984 4.93804 0.833984 10.0007C0.833984 15.0633 4.93804 19.1673 10.0007 19.1673ZM14.786 8.11937C15.1277 7.77766 15.1277 7.22364 14.786 6.88193C14.4443 6.54022 13.8903 6.54022 13.5486 6.88193L8.75065 11.6799L6.4527 9.38193C6.11099 9.04022 5.55697 9.04022 5.21527 9.38193C4.87356 9.72364 4.87356 10.2777 5.21527 10.6194L7.77838 13.1825C8.31535 13.7195 9.18595 13.7195 9.72292 13.1825L14.786 8.11937Z" fill="#007713"/>
</g>
<defs>
<clipPath id="clip0_27822_101610">
<rect width="20" height="20" fill="white"/>
</clipPath>
</defs>
</svg>
