<svg width="36" height="20" viewBox="0 0 36 20" fill="none" xmlns="http://www.w3.org/2000/svg">
<path fill-rule="evenodd" clip-rule="evenodd" d="M28.4022 1.0265L25.8171 11.5263L23.2246 1.0265H15.7367V4.90394C14.8264 1.51132 11.4886 0.660145 8.50611 0.611747C4.86953 0.564475 0.839818 2.13768 0.700036 6.93834H5.73021C5.73021 5.48894 7.05926 4.65914 8.31448 4.67997C9.85518 4.6673 10.5642 5.32377 10.6 6.34631C10.547 7.23407 10.0223 7.85142 8.32744 7.85142H6.63484V11.3363H8.17047C9.04298 11.3363 10.2573 11.8096 10.3052 13.0505C10.3633 14.5286 9.33353 15.1786 8.06648 15.191C5.80517 15.1077 5.22124 13.3727 5.22124 11.88H0C0.0225454 12.8856 -0.0104275 19.4368 8.1716 19.3886C12.0914 19.4247 14.9445 17.7791 15.7494 15.5101V18.9874H20.7849V7.65952L23.5684 18.9874H28.0685L30.8622 7.67162V18.9975H36V1.0265H28.4022ZM15.7533 11.5015C15.1116 10.1773 14.209 9.59824 13.7009 9.41506C14.7673 8.94149 15.3253 8.29938 15.7533 7.02022V11.5015Z" fill="#FF0000"/>
</svg>
