<svg width="21" height="20" viewBox="0 0 21 20" fill="none" xmlns="http://www.w3.org/2000/svg">
<path fill-rule="evenodd" clip-rule="evenodd" d="M19.6663 10.0007C19.6663 15.0633 15.5623 19.1673 10.4997 19.1673C5.43706 19.1673 1.33301 15.0633 1.33301 10.0007C1.33301 4.93804 5.43706 0.833984 10.4997 0.833984C15.5623 0.833984 19.6663 4.93804 19.6663 10.0007ZM10.4997 15.8757C10.9829 15.8757 11.3747 15.4839 11.3747 15.0007V9.16732C11.3747 8.68407 10.9829 8.29232 10.4997 8.29232C10.0164 8.29232 9.62467 8.68407 9.62467 9.16732V15.0007C9.62467 15.4839 10.0164 15.8757 10.4997 15.8757ZM10.4997 4.58398C11.075 4.58398 11.5413 5.05035 11.5413 5.62565C11.5413 6.20095 11.075 6.66732 10.4997 6.66732C9.92438 6.66732 9.45801 6.20095 9.45801 5.62565C9.45801 5.05035 9.92438 4.58398 10.4997 4.58398Z" fill="#0049BD"/>
</svg>
