<svg width="20" height="20" viewBox="0 0 20 20" fill="none" xmlns="http://www.w3.org/2000/svg">
<path d="M3.043 6.06239C3.34289 6.06239 3.586 5.82457 3.586 5.5312C3.586 5.23782 3.34289 5 3.043 5C2.74311 5 2.5 5.23782 2.5 5.5312C2.5 5.82457 2.74311 6.06239 3.043 6.06239Z" fill="#94949A" stroke="#94949A" stroke-width="1.25" stroke-linecap="round" stroke-linejoin="round"/>
<path d="M6.8418 5.53125H16.6121" stroke="#94949A" stroke-width="1.25" stroke-linecap="round" stroke-linejoin="round"/>
<path d="M3.043 10.4569C3.34289 10.4569 3.586 10.2191 3.586 9.92573C3.586 9.63236 3.34289 9.39453 3.043 9.39453C2.74311 9.39453 2.5 9.63236 2.5 9.92573C2.5 10.2191 2.74311 10.4569 3.043 10.4569Z" fill="#94949A" stroke="#94949A" stroke-width="1.25" stroke-linecap="round" stroke-linejoin="round"/>
<path d="M6.8418 9.92578H16.6121" stroke="#94949A" stroke-width="1.25" stroke-linecap="round" stroke-linejoin="round"/>
<path d="M3.043 14.8554C3.34289 14.8554 3.586 14.6175 3.586 14.3242C3.586 14.0308 3.34289 13.793 3.043 13.793C2.74311 13.793 2.5 14.0308 2.5 14.3242C2.5 14.6175 2.74311 14.8554 3.043 14.8554Z" fill="#94949A" stroke="#94949A" stroke-width="1.25" stroke-linecap="round" stroke-linejoin="round"/>
<path d="M6.8418 14.3242H16.6121" stroke="#94949A" stroke-width="1.25" stroke-linecap="round" stroke-linejoin="round"/>
</svg>
