<svg width="70" height="38" viewBox="0 0 70 38" fill="none" xmlns="http://www.w3.org/2000/svg">
<path fill-rule="evenodd" clip-rule="evenodd" d="M54.8051 1.62339L49.8438 21.9557L44.8684 1.62339H30.4977V9.13186C28.7507 2.56222 22.3447 0.91395 16.6208 0.820231C9.64147 0.72869 1.90767 3.77513 1.6394 13.0714H11.2933C11.2933 10.2647 13.844 8.65781 16.253 8.69813C19.2099 8.67361 20.5707 9.94482 20.6394 11.9249C20.5377 13.644 19.5306 14.8395 16.2779 14.8395H13.0294V21.5879H15.9766C17.6511 21.5879 19.9817 22.5044 20.0736 24.9073C20.185 27.7695 18.2087 29.0282 15.777 29.0522C11.4371 28.8909 10.3165 25.5312 10.3165 22.6406H0.295898C0.339167 24.588 0.275887 37.2739 15.9788 37.1807C23.5016 37.2505 28.9773 34.064 30.522 29.6701V36.4037H40.1862V14.4679L45.5283 36.4037H54.1648L59.5263 14.4913V36.4234H69.3868V1.62339H54.8051ZM30.5293 21.9078C29.2977 19.3436 27.5653 18.2222 26.5901 17.8675C28.6368 16.9505 29.7077 15.7071 30.5293 13.23V21.9078Z" fill="#FF0000"/>
</svg>
