<svg width="70" height="38" viewBox="0 0 70 38" fill="none" xmlns="http://www.w3.org/2000/svg">
<path fill-rule="evenodd" clip-rule="evenodd" d="M54.5092 1.62339L49.5479 21.9557L44.5725 1.62339H30.2018V9.13186C28.4548 2.56222 22.0488 0.91395 16.3249 0.820231C9.34557 0.72869 1.61177 3.77513 1.3435 13.0714H10.9974C10.9974 10.2647 13.5481 8.65781 15.9571 8.69813C18.914 8.67361 20.2748 9.94482 20.3435 11.9249C20.2418 13.644 19.2347 14.8395 15.982 14.8395H12.7335V21.5879H15.6807C17.3552 21.5879 19.6858 22.5044 19.7777 24.9073C19.8892 27.7695 17.9128 29.0282 15.4811 29.0522C11.1412 28.8909 10.0206 25.5312 10.0206 22.6406H0C0.043269 24.588 -0.0200116 37.2739 15.6829 37.1807C23.2057 37.2505 28.6814 34.064 30.2261 29.6701V36.4037H39.8903V14.4679L45.2324 36.4037H53.8689L59.2304 14.4913V36.4234H69.0909V1.62339H54.5092ZM30.2334 21.9078C29.0018 19.3436 27.2694 18.2222 26.2943 17.8675C28.3409 16.9505 29.4118 15.7071 30.2334 13.23V21.9078Z" fill="#FF0000"/>
</svg>
