<svg width="24" height="24" viewBox="0 0 24 24" fill="none" xmlns="http://www.w3.org/2000/svg">
<path fill-rule="evenodd" clip-rule="evenodd" d="M5.13414 8.51514C5.64514 6.44214 7.49014 4.99414 9.62114 4.99414C12.1731 4.99414 14.2491 7.07014 14.2491 9.62114C14.2491 11.8721 12.6371 13.7871 10.4171 14.1751C10.1301 14.2241 9.86914 14.2481 9.62114 14.2481C7.07014 14.2481 4.99414 12.1731 4.99414 9.62114C4.99414 9.26214 5.04114 8.89014 5.13414 8.51514ZM14.954 13.543C15.786 12.412 16.244 11.022 16.244 9.622C16.244 5.971 13.274 3 9.622 3C6.546 3 3.899 5.094 3.186 8.091C3.062 8.608 3 9.123 3 9.622C3 13.273 5.971 16.244 9.622 16.244C9.795 16.244 9.964 16.233 10.107 16.223C11.355 16.132 12.542 15.694 13.544 14.954L19.205 20.616C19.448 20.858 19.683 21 19.918 21C20.244 21 20.479 20.751 20.615 20.615C21.2 20.031 21.051 19.64 20.615 19.205L14.954 13.543Z" fill="#656569"/>
</svg>
