<svg width="20" height="20" viewBox="0 0 20 20" fill="none" xmlns="http://www.w3.org/2000/svg">
<path d="M13.3498 6.19615L18.1935 7.32174C18.56 7.4069 18.7047 7.85098 18.4587 8.13565L15.21 11.8958C15.1232 11.9964 15.0799 12.1274 15.0898 12.2599L15.5215 18.0445C15.5516 18.4474 15.116 18.7178 14.7683 18.512L10.27 15.8498C10.113 15.7568 9.91775 15.7568 9.7607 15.8498L5.26186 18.5123C4.91422 18.7181 4.47874 18.448 4.50857 18.0451L4.94089 12.2069C4.9508 12.0731 4.9065 11.9409 4.81795 11.84L1.55376 8.12312C1.30379 7.83848 1.44883 7.39007 1.81814 7.30573L6.67965 6.19562C6.81142 6.16553 6.92539 6.08337 6.9956 5.96788L9.5881 1.70289C9.78285 1.38251 10.2479 1.38251 10.4426 1.70289L13.0357 5.96884C13.1056 6.08377 13.2188 6.16571 13.3498 6.19615Z" stroke="#B4B4B8" stroke-width="1.5" stroke-linecap="round"/>
</svg>
