<svg width="28" height="28" viewBox="0 0 28 28" fill="none" xmlns="http://www.w3.org/2000/svg">
<line x1="11.375" y1="22.459" x2="24.7917" y2="22.459" stroke="#0049BD" stroke-width="1.75" stroke-linecap="round"/>
<path d="M7.87508 18.959L7.87508 7.47257C7.87508 7.17376 7.74145 6.8906 7.51078 6.70065L2.91675 2.91732" stroke="#0049BD" stroke-width="1.75" stroke-linecap="round"/>
<rect x="12.8335" y="8.16699" width="10.5" height="10.5" rx="0.75" stroke="#0049BD" stroke-width="1.75"/>
<path d="M15.9834 8.16699V12.117C15.9834 12.2551 16.0953 12.367 16.2334 12.367H19.9334C20.0715 12.367 20.1834 12.2551 20.1834 12.117V8.16699" stroke="#0049BD" stroke-width="1.75"/>
<path d="M10.7917 22.167C10.7917 23.6167 9.6165 24.792 8.16675 24.792C6.717 24.792 5.54175 23.6167 5.54175 22.167C5.54175 20.7172 6.717 19.542 8.16675 19.542C9.6165 19.542 10.7917 20.7172 10.7917 22.167Z" stroke="#0049BD" stroke-width="1.75"/>
</svg>
