<svg width="18" height="12" viewBox="0 0 18 12" fill="none" xmlns="http://www.w3.org/2000/svg">
<circle cx="9" cy="6" r="2.5" stroke="#76767A" stroke-width="1.25"/>
<path d="M16.9371 5.46787L17.4266 5.07934L16.9371 5.46787ZM16.9371 6.53213L16.4475 6.14359L16.9371 6.53213ZM1.06297 5.46787L0.573406 5.07934L1.06297 5.46787ZM1.55252 5.85641C2.04215 5.23946 2.98721 4.17155 4.27928 3.26203C5.5715 2.3524 7.17616 1.625 9.00002 1.625V0.375C6.83645 0.375 4.98367 1.23756 3.55976 2.23988C2.1357 3.24231 1.10595 4.40833 0.573406 5.07934L1.55252 5.85641ZM9.00002 1.625C10.8239 1.625 12.4285 2.3524 13.7208 3.26203C15.0128 4.17154 15.9579 5.23946 16.4475 5.85641L17.4266 5.07934C16.8941 4.40833 15.8643 3.24231 14.4403 2.23988C13.0164 1.23756 11.1636 0.375 9.00002 0.375V1.625ZM16.4475 6.14359C15.9579 6.76054 15.0128 7.82845 13.7208 8.73797C12.4285 9.6476 10.8239 10.375 9.00002 10.375V11.625C11.1636 11.625 13.0164 10.7624 14.4403 9.76012C15.8643 8.75769 16.8941 7.59167 17.4266 6.92066L16.4475 6.14359ZM9.00002 10.375C7.17616 10.375 5.5715 9.6476 4.27928 8.73797C2.98721 7.82845 2.04215 6.76054 1.55252 6.14359L0.573407 6.92066C1.10595 7.59167 2.1357 8.75769 3.55976 9.76012C4.98367 10.7624 6.83645 11.625 9.00002 11.625V10.375ZM16.4475 5.85641C16.5179 5.94508 16.5179 6.05492 16.4475 6.14359L17.4266 6.92066C17.8582 6.3769 17.8582 5.6231 17.4266 5.07934L16.4475 5.85641ZM0.573406 5.07934C0.141856 5.6231 0.141858 6.3769 0.573407 6.92066L1.55252 6.14359C1.48215 6.05492 1.48215 5.94508 1.55252 5.85641L0.573406 5.07934Z" fill="#76767A"/>
</svg>
