<svg width="20" height="20" viewBox="0 0 20 20" fill="none" xmlns="http://www.w3.org/2000/svg">
<path d="M4.5 4.5H2C1.44772 4.5 1 4.94772 1 5.5V13.5C1 14.0523 1.44772 14.5 2 14.5H4.5M15.5 4.5H18C18.5523 4.5 19 4.94772 19 5.5V13.5C19 14.0523 18.5523 14.5 18 14.5H15.5M4.5 14.5V18C4.5 18.5523 4.94772 19 5.5 19H14.5C15.0523 19 15.5 18.5523 15.5 18V14.5M4.5 14.5H15.5M14 11.5H16M5.5 6.5H14.5C15.0523 6.5 15.5 6.05228 15.5 5.5V2C15.5 1.44772 15.0523 1 14.5 1H5.5C4.94772 1 4.5 1.44772 4.5 2V5.5C4.5 6.05228 4.94771 6.5 5.5 6.5Z" stroke="#0049BD" stroke-width="1.5" stroke-linecap="round"/>
</svg>
