<svg width="25" height="24" viewBox="0 0 25 24" fill="none" xmlns="http://www.w3.org/2000/svg">
<path fill-rule="evenodd" clip-rule="evenodd" d="M2.76963 5.99201C3.12623 5.6322 3.61153 5.42865 4.11918 5.42865H6.40486C6.87824 5.42865 7.26199 5.8124 7.26199 6.28578C7.26199 6.75916 6.87824 7.14291 6.40486 7.14291H4.11918C4.07115 7.14291 4.02352 7.16209 3.9872 7.19874C3.95062 7.23565 3.92871 7.28733 3.92871 7.3428V15.7715C3.92871 15.8269 3.95062 15.8786 3.9872 15.9155C4.02352 15.9522 4.07115 15.9713 4.11918 15.9713H20.8808C20.9289 15.9713 20.9765 15.9522 21.0128 15.9155C21.0494 15.8786 21.0713 15.8269 21.0713 15.7715V7.3428C21.0713 7.28733 21.0494 7.23565 21.0128 7.19874C20.9765 7.16209 20.9289 7.14291 20.8808 7.14291H18.5951C18.1218 7.14291 17.738 6.75916 17.738 6.28578C17.738 5.8124 18.1218 5.42865 18.5951 5.42865H20.8808C21.3885 5.42865 21.8738 5.6322 22.2304 5.99201C22.5867 6.35156 22.7856 6.8376 22.7856 7.3428V15.7715C22.7856 16.2767 22.5867 16.7627 22.2304 17.1223C21.8738 17.4821 21.3885 17.6856 20.8808 17.6856H4.11918C3.61153 17.6856 3.12623 17.4821 2.76963 17.1223C2.41328 16.7627 2.21445 16.2767 2.21445 15.7715V7.3428C2.21445 6.8376 2.41328 6.35156 2.76963 5.99201Z" fill="#0049BD"/>
<path fill-rule="evenodd" clip-rule="evenodd" d="M7.92868 3.42813C7.85291 3.42813 7.78023 3.45823 7.72665 3.51181C7.67307 3.56539 7.64297 3.63806 7.64297 3.71384V7.71378H17.3571V3.71384C17.3571 3.63806 17.327 3.56539 17.2734 3.51181C17.2198 3.45823 17.1472 3.42813 17.0714 3.42813H7.92868ZM6.51449 2.29964C6.88956 1.92458 7.39826 1.71387 7.92868 1.71387H17.0714C17.6018 1.71387 18.1105 1.92458 18.4856 2.29964C18.8607 2.67471 19.0714 3.18341 19.0714 3.71384V8.5709C19.0714 9.04428 18.6876 9.42803 18.2142 9.42803H6.78584C6.31246 9.42803 5.92871 9.04428 5.92871 8.5709V3.71384C5.92871 3.18341 6.13942 2.67471 6.51449 2.29964Z" fill="#0049BD"/>
<path fill-rule="evenodd" clip-rule="evenodd" d="M5.92871 16.8576C5.92871 16.3842 6.31246 16.0005 6.78584 16.0005H18.2142C18.6876 16.0005 19.0714 16.3842 19.0714 16.8576V20.2861C19.0714 20.8166 18.8607 21.3253 18.4856 21.7003C18.1105 22.0754 17.6018 22.2861 17.0714 22.2861H7.92868C7.39826 22.2861 6.88956 22.0754 6.51449 21.7003C6.13942 21.3253 5.92871 20.8166 5.92871 20.2861V16.8576ZM7.64297 17.7147V20.2861C7.64297 20.3619 7.67307 20.4346 7.72665 20.4882C7.78023 20.5417 7.8529 20.5718 7.92868 20.5718H17.0714C17.1472 20.5718 17.2198 20.5417 17.2734 20.4882C17.327 20.4346 17.3571 20.3619 17.3571 20.2861V17.7147H7.64297Z" fill="#0049BD"/>
<path fill-rule="evenodd" clip-rule="evenodd" d="M16.2142 13.7133C16.2142 13.2399 16.598 12.8562 17.0713 12.8562H18.2142C18.6876 12.8562 19.0713 13.2399 19.0713 13.7133C19.0713 14.1867 18.6876 14.5704 18.2142 14.5704H17.0713C16.598 14.5704 16.2142 14.1867 16.2142 13.7133Z" fill="#0049BD"/>
</svg>
