<svg width="20" height="20" viewBox="0 0 20 20" fill="none" xmlns="http://www.w3.org/2000/svg">
<path fill-rule="evenodd" clip-rule="evenodd" d="M6.76532 2.64645L2.64645 6.76532C2.55268 6.85909 2.5 6.98626 2.5 7.11887V12.8811C2.5 13.0137 2.55268 13.1409 2.64645 13.2347L6.76532 17.3536C6.85909 17.4473 6.98626 17.5 7.11887 17.5H12.8811C13.0137 17.5 13.1409 17.4473 13.2347 17.3536L17.3536 13.2347C17.4473 13.1409 17.5 13.0137 17.5 12.8811V7.11887C17.5 6.98626 17.4473 6.85909 17.3536 6.76532L13.2347 2.64645C13.1409 2.55268 13.0137 2.5 12.8811 2.5H7.11887C6.98626 2.5 6.85909 2.55268 6.76532 2.64645ZM10.0417 5.125C10.5249 5.125 10.9167 5.51675 10.9167 6V10.1667C10.9167 10.6499 10.5249 11.0417 10.0417 11.0417C9.55842 11.0417 9.16667 10.6499 9.16667 10.1667V6C9.16667 5.51675 9.55842 5.125 10.0417 5.125ZM10.0417 15.2498C10.617 15.2498 11.0833 14.7835 11.0833 14.2082C11.0833 13.6329 10.617 13.1665 10.0417 13.1665C9.46637 13.1665 9 13.6329 9 14.2082C9 14.7835 9.46637 15.2498 10.0417 15.2498Z" fill="#CB0000"/>
</svg>
