<svg width="18" height="14" viewBox="0 0 18 14" fill="none" xmlns="http://www.w3.org/2000/svg">
<path d="M11.5 7C11.5 8.38071 10.3807 9.5 9 9.5M6.5 7C6.5 5.61929 7.61929 4.5 9 4.5" stroke="#76767A" stroke-width="1.25" stroke-linecap="round"/>
<path d="M10.9499 3.04049C11.2715 3.1659 11.6339 3.00686 11.7593 2.68527C11.8847 2.36368 11.7257 2.00132 11.4041 1.87591L10.9499 3.04049ZM14.5992 3.71677C14.3221 3.51105 13.9306 3.56896 13.7249 3.84613C13.5192 4.12331 13.5771 4.51477 13.8542 4.7205L14.5992 3.71677ZM7.13686 10.9928C6.81383 10.8712 6.45335 11.0344 6.33172 11.3575C6.21008 11.6805 6.37335 12.041 6.69639 12.1626L7.13686 10.9928ZM3.20489 10.1361C3.47962 10.3451 3.87174 10.2918 4.08073 10.0171C4.28971 9.74234 4.23642 9.35022 3.96169 9.14123L3.20489 10.1361ZM16.8656 7.62135L16.3794 7.22855L16.8656 7.62135ZM16.7933 6.4406L17.2343 5.99775L16.7933 6.4406ZM1.13436 6.37865L0.648213 5.98585L1.13436 6.37865ZM1.20693 7.55971L0.7659 8.00256L1.20693 7.55971ZM1.6205 6.77145C2.69082 5.44677 5.41199 2.625 8.99996 2.625V1.375C4.79148 1.375 1.74236 4.63169 0.648213 5.98585L1.6205 6.77145ZM16.3794 7.22855C15.3091 8.55323 12.5879 11.375 8.99996 11.375V12.625C13.2084 12.625 16.2576 9.36831 17.3517 8.01415L16.3794 7.22855ZM8.99996 2.625C9.61281 2.625 10.2711 2.77575 10.9499 3.04049L11.4041 1.87591C10.6277 1.57316 9.81194 1.375 8.99996 1.375V2.625ZM13.8542 4.7205C14.9255 5.51561 15.8199 6.35326 16.3523 6.88344L17.2343 5.99775C16.6763 5.442 15.7351 4.55985 14.5992 3.71677L13.8542 4.7205ZM8.99996 11.375C8.41363 11.375 7.78544 11.237 7.13686 10.9928L6.69639 12.1626C7.44199 12.4434 8.22259 12.625 8.99996 12.625V11.375ZM3.96169 9.14123C2.97212 8.38846 2.14925 7.61608 1.64796 7.11686L0.7659 8.00256C1.29189 8.52639 2.15738 9.33926 3.20489 10.1361L3.96169 9.14123ZM17.3517 8.01415C17.8477 7.40029 17.7775 6.53865 17.2343 5.99775L16.3523 6.88344C16.4579 6.98865 16.4589 7.13022 16.3794 7.22855L17.3517 8.01415ZM0.648213 5.98585C0.151996 6.6 0.223035 7.46193 0.7659 8.00256L1.64796 7.11686C1.54206 7.01139 1.54128 6.86949 1.6205 6.77145L0.648213 5.98585Z" fill="#76767A"/>
<path d="M3.16663 12.8333L14.8333 1.16663" stroke="#76767A" stroke-width="1.25" stroke-linecap="round"/>
</svg>
