<svg width="20" height="20" viewBox="0 0 20 20" fill="none" xmlns="http://www.w3.org/2000/svg">
<g clip-path="url(#clip0_44904_60117)">
<path fill-rule="evenodd" clip-rule="evenodd" d="M9.99986 19.1654C15.0625 19.1654 19.1665 15.0613 19.1665 9.9987C19.1665 4.93609 15.0625 0.832031 9.99986 0.832031C4.93725 0.832031 0.833191 4.93609 0.833191 9.9987C0.833191 15.0613 4.93725 19.1654 9.99986 19.1654ZM14.7852 8.11742C15.127 7.77571 15.127 7.22169 14.7852 6.87998C14.4435 6.53827 13.8895 6.53827 13.5478 6.87998L8.74986 11.6779L6.45191 9.37998C6.1102 9.03827 5.55618 9.03827 5.21447 9.37998C4.87276 9.72169 4.87276 10.2757 5.21447 10.6174L7.77759 13.1805C8.31456 13.7175 9.18516 13.7175 9.72213 13.1805L14.7852 8.11742Z" fill="#0049BD"/>
</g>
<defs>
<clipPath id="clip0_44904_60117">
<rect width="20" height="20" fill="white"/>
</clipPath>
</defs>
</svg>
